<svg fill="none" height="24" viewBox="0 0 24 24" width="24" xmlns="http://www.w3.org/2000/svg"><g stroke="#222" stroke-linecap="round"><path d="m3.5 4.5h1.55848c.69572 0 1.04358 0 1.30547.18876s.37189.51877.5919 1.17878l.54415 1.63246"/><path d="m17.5 17.5h-9.44909c-.1462 0-.21929 0-.27475-.0062-.58759-.0658-.99011-.6243-.86671-1.2025.01164-.0546.03476-.1239.08099-.2626.05133-.154.07699-.231.10535-.2989.29028-.6956.94698-1.169 1.69869-1.2244.07342-.0054.15458-.0054.31689-.0054h5.38863" stroke-linejoin="round"/><path d="m14.1787 14.5h-3.0411c-1.27924 0-1.91885 0-2.41979-.3303s-.75289-.9182-1.25681-2.094l-.16882-.3939c-.80949-1.88886-1.21424-2.83327-.76963-3.50754.4446-.67426 1.47209-.67426 3.52705-.67426h5.2809c2.299 0 3.4485 0 3.8821.74711s-.1368 1.74518-1.2774 3.74129l-.2835.4962c-.562.9833-.8429 1.475-1.3085 1.7452s-1.0319.2702-2.1645.2702z"/></g><circle cx="17" cy="20" fill="#222" r="1"/><circle cx="9" cy="20" fill="#222" r="1"/></svg>